HIERARCHY
ROOT SpineBase
{
  OFFSET 0.000000 0.000000 0.000000
  CHANNELS 6 Xposition Yposition Zposition Zrotation Xrotation Yrotation
  JOINT SpineMid
  {
    OFFSET 0.000000 30.789929 0.000000
    CHANNELS 3 Zrotation Xrotation Yrotation
    JOINT SpineShoulder
    {
      OFFSET -0.174473 22.928624 -0.718653
      CHANNELS 3 Zrotation Xrotation Yrotation
      JOINT Neck
      {
        OFFSET -0.115767 7.605941 -0.534905
        CHANNELS 3 Zrotation Xrotation Yrotation
        JOINT Head
        {
          OFFSET 4.591883 13.911952 -1.520722
          CHANNELS 3 Zrotation Xrotation Yrotation
          End Site
          {
            OFFSET 0 0 0
          }
        }
      }
      JOINT ShoulderLeft
      {
        OFFSET -16.370583 -1.597717 -7.570452
        CHANNELS 3 Zrotation Xrotation Yrotation
        JOINT ElbowLeft
        {
          OFFSET -7.451700 -24.603800 -2.624322
          CHANNELS 3 Zrotation Xrotation Yrotation
          JOINT WristLeft
          {
            OFFSET 2.992984 -22.421159 -5.951564
            CHANNELS 3 Zrotation Xrotation Yrotation
            JOINT HandLeft
            {
              OFFSET 2.374436 -6.253362 0.110499
              CHANNELS 3 Zrotation Xrotation Yrotation
              JOINT HandTipLeft
              {
                OFFSET 0.610362 -5.034754 -0.764721
                CHANNELS 3 Zrotation Xrotation Yrotation
                End Site
                {
                  OFFSET 0 0 0
                }
              }
              JOINT ThumbLeft
              {
                OFFSET 2.643481 -0.149854 -2.620273
                CHANNELS 3 Zrotation Xrotation Yrotation
                End Site
                {
                  OFFSET 0 0 0
                }
              }
            }
          }
        }
      }
      JOINT ShoulderRight
      {
        OFFSET 17.852426 -4.647941 3.511171
        CHANNELS 3 Zrotation Xrotation Yrotation
        JOINT ElbowRight
        {
          OFFSET 2.026030 -24.427333 2.741269
          CHANNELS 3 Zrotation Xrotation Yrotation
          JOINT WristRight
          {
            OFFSET -3.413925 -27.927559 -11.379827
            CHANNELS 3 Zrotation Xrotation Yrotation
            JOINT HandRight
            {
              OFFSET -1.557670 0.274586 0.517026
              CHANNELS 3 Zrotation Xrotation Yrotation
              JOINT HandTipRight
              {
                OFFSET 0.459414 -3.347305 -2.392086
                CHANNELS 3 Zrotation Xrotation Yrotation
                End Site
                {
                  OFFSET 0 0 0
                }
              }
              JOINT ThumbRight
              {
                OFFSET 0.486798 -1.396112 -3.880787
                CHANNELS 3 Zrotation Xrotation Yrotation
                End Site
                {
                  OFFSET 0 0 0
                }
              }
            }
          }
        }
      }
    }
  }
  JOINT HipLeft
  {
    OFFSET -8.381778 1.289759 -5.602195
    CHANNELS 3 Zrotation Xrotation Yrotation
    JOINT KneeLeft
    {
      OFFSET -9.329569 -30.645080 -0.015567
      CHANNELS 3 Zrotation Xrotation Yrotation
      JOINT AnkleLeft
      {
        OFFSET -5.302421 -33.965658 4.343909
        CHANNELS 3 Zrotation Xrotation Yrotation
        JOINT FootLeft
        {
          OFFSET 3.198093 -3.986434 -13.504100
          CHANNELS 3 Zrotation Xrotation Yrotation
          End Site
          {
            OFFSET 0 0 0
          }
        }
      }
    }
  }
  JOINT HipRight
  {
    OFFSET 7.457710 0.703466 -1.363414
    CHANNELS 3 Zrotation Xrotation Yrotation
    JOINT KneeRight
    {
      OFFSET -1.950449 -32.410313 4.678943
      CHANNELS 3 Zrotation Xrotation Yrotation
      JOINT AnkleRight
      {
        OFFSET -4.771548 -32.216597 9.137637
        CHANNELS 3 Zrotation Xrotation Yrotation
        JOINT FootRight
        {
          OFFSET 0.204459 -7.311826 -6.813785
          CHANNELS 3 Zrotation Xrotation Yrotation
          End Site
          {
            OFFSET 0 0 0
          }
        }
      }
    }
  }
}
MOTION
Frames: 14
Frame Time: 0.033333
48.218736 74.455345 350.338519 -2.306884 -3.393016 -10.476607 -0.188217 -0.765005 10.288538 -0.105956 -0.222825 -0.145706 4.333883 1.034977 1.350393 0.000000 0.000000 0.000000 2.655422 3.039781 0.561832 5.151682 0.098831 -1.967553 -11.337095 10.978418 6.038463 10.779846 -17.229427 -3.681787 0.000000 0.000000 0.000000 0.000000 0.000000 0.000000 -2.953110 11.628722 0.929907 6.922333 -21.087012 1.980792 71.393774 41.638375 -3.607327 -87.932986 -10.238619 -34.895198 0.000000 0.000000 0.000000 0.000000 0.000000 0.000000 4.938061 3.252457 10.482344 -6.867987 -1.045567 -0.436392 -3.843056 -25.853310 14.590387 0.000000 0.000000 0.000000 2.014026 -0.258714 10.530438 -1.789327 3.607671 -0.608296 4.022612 -3.717431 -1.278124 0.000000 0.000000 0.000000
48.491952 74.281568 349.981999 -2.687156 -4.782821 -8.237206 -0.122898 -0.759184 7.983377 -0.030340 -0.084607 -0.159016 4.777640 0.148199 2.063746 0.000000 0.000000 0.000000 2.763990 2.562186 1.104157 4.350913 1.925873 -2.369660 -13.014801 11.734457 6.436224 13.650563 -13.990410 -3.231795 0.000000 0.000000 0.000000 0.000000 0.000000 0.000000 -3.543353 14.233506 1.284101 8.455178 -26.360690 2.655329 80.953044 38.705643 -15.783579 -102.640098 -16.300976 -31.181302 0.000000 0.000000 0.000000 0.000000 0.000000 0.000000 5.218514 5.758532 7.667848 -6.684178 -2.472246 -0.103680 -2.724270 -15.848631 13.191862 0.000000 0.000000 0.000000 2.210832 0.490289 8.240793 -2.011386 3.574016 -0.593687 3.203647 -0.530767 -0.251271 0.000000 0.000000 0.000000
48.679063 73.928388 349.227932 -2.930457 -6.258911 -6.128667 -0.055573 -0.685425 5.809570 0.031459 0.037030 -0.168940 4.952883 -1.132642 2.904661 0.000000 0.000000 0.000000 2.406711 1.117083 2.003813 2.799833 4.709918 -2.725812 -13.531943 11.196368 5.862111 15.448428 -9.718592 -2.546931 0.000000 0.000000 0.000000 0.000000 0.000000 0.000000 -3.891314 16.144533 1.547653 9.666655 -30.636204 3.330431 87.447093 33.553363 -26.552202 -111.103318 -27.898913 -34.276385 0.000000 0.000000 0.000000 0.000000 0.000000 0.000000 5.156483 8.961313 4.791175 -5.579116 -3.775862 0.394309 -2.651805 -10.874617 12.034660 0.000000 0.000000 0.000000 2.591290 1.201052 6.105530 -2.603943 3.331888 -0.585525 2.244313 0.825170 0.976382 0.000000 0.000000 0.000000
48.775386 73.375856 348.179300 -2.957879 -7.574227 -3.879320 -0.006968 -0.583364 3.515821 0.064744 0.110436 -0.173155 4.767272 -3.051789 3.903749 0.000000 0.000000 0.000000 1.887519 -0.409296 2.883124 1.518624 6.878674 -3.056188 -14.639439 11.315162 5.639501 16.699289 -8.277907 -2.070786 0.000000 0.000000 0.000000 0.000000 0.000000 0.000000 -4.056714 16.770987 1.605595 10.245577 -32.843608 3.819568 89.007794 29.634161 -32.884913 -113.739942 -37.410156 -38.066202 0.000000 0.000000 0.000000 0.000000 0.000000 0.000000 5.756675 11.924501 1.726328 -5.322209 -4.089092 0.724579 -2.893232 -10.256722 11.976550 0.000000 0.000000 0.000000 3.208396 1.287026 3.896086 -3.718408 3.551696 -0.639103 1.633411 1.014263 2.090932 0.000000 0.000000 0.000000
48.827275 72.756127 347.184936 -2.944365 -8.642822 -2.078078 0.016188 -0.470695 1.682573 0.088133 0.143489 -0.177369 5.103463 -5.085975 4.919999 0.000000 0.000000 0.000000 1.547729 -2.210282 3.751613 -0.152642 9.007355 -3.146509 -15.096147 12.079155 5.641769 18.962531 -8.669747 -1.827152 0.000000 0.000000 0.000000 0.000000 0.000000 0.000000 -4.070139 16.784986 1.566796 10.310460 -33.361849 4.039312 90.953899 29.617703 -34.598642 -112.062929 -41.337678 -44.549424 0.000000 0.000000 0.000000 0.000000 0.000000 0.000000 6.451227 14.826623 -0.974788 -5.054549 -3.912378 1.013224 -3.166194 -10.628622 12.009665 0.000000 0.000000 0.000000 3.976907 1.644616 2.118310 -4.916922 2.997237 -0.642115 0.657693 0.716966 3.400983 0.000000 0.000000 0.000000
48.734923 71.890828 345.512939 -2.604929 -9.813672 -0.235565 0.004650 -0.233730 -0.150966 0.070869 0.162545 -0.171048 5.301150 -6.339662 5.683570 0.000000 0.000000 0.000000 1.307737 -3.735798 4.490621 -2.176807 10.484606 -3.002443 -14.183150 12.129276 5.016589 19.314758 -9.234978 -1.671397 0.000000 0.000000 0.000000 0.000000 0.000000 0.000000 -4.278165 18.119340 1.720166 10.323619 -35.536904 4.374816 91.176114 30.246615 -35.813397 -112.263326 -44.623301 -49.742854 0.000000 0.000000 0.000000 0.000000 0.000000 0.000000 6.932355 18.225248 -3.875235 -4.535275 -3.686967 1.386025 -3.785764 -12.734323 12.335030 0.000000 0.000000 0.000000 4.589363 1.586002 0.371221 -6.260887 2.615315 -0.599394 -0.496505 -2.797025 4.826553 0.000000 0.000000 0.000000
48.609547 70.907650 343.551700 -2.105272 -10.972437 1.189243 -0.002033 -0.267011 -1.547391 0.065791 0.034065 -0.166067 5.459797 -7.174936 6.444972 0.000000 0.000000 0.000000 0.994036 -4.680281 5.185861 -4.192479 11.642158 -2.741861 -12.734303 13.964735 5.333627 18.830176 -11.718139 -1.985199 0.000000 0.000000 0.000000 0.000000 0.000000 0.000000 -4.805585 19.299890 1.867498 10.516026 -37.215432 4.744040 91.248371 31.830662 -36.360705 -111.545286 -45.470574 -53.612173 0.000000 0.000000 0.000000 0.000000 0.000000 0.000000 7.115708 21.692683 -6.337003 -3.758180 -2.878269 1.725449 -4.527316 -14.800771 13.385081 0.000000 0.000000 0.000000 4.830837 1.278196 -0.917498 -7.340484 2.504926 -0.501384 4.459865 -8.622113 -0.353378 0.000000 0.000000 0.000000
48.342824 69.927715 341.363713 -1.475492 -11.864532 1.797398 -0.012922 -0.185324 -2.089989 0.050215 -0.090702 -0.151853 5.644520 -7.528186 6.940401 0.000000 0.000000 0.000000 0.832134 -5.573908 5.721057 -6.163048 12.463588 -2.371270 -10.643604 15.885876 5.629130 16.892013 -13.775053 -2.461980 0.000000 0.000000 0.000000 0.000000 0.000000 0.000000 -5.451497 20.235113 2.007537 10.660281 -38.240002 4.966118 86.850756 37.951668 -31.579380 -106.617518 -42.496146 -57.256655 0.000000 0.000000 0.000000 0.000000 0.000000 0.000000 7.196319 24.841392 -7.935795 -3.443384 -2.435545 2.037874 -5.526919 -20.450616 14.285883 0.000000 0.000000 0.000000 4.837504 0.847349 -1.342814 -8.016733 2.160074 -0.309737 7.552881 -20.950666 -4.843865 0.000000 0.000000 0.000000
47.749646 68.970785 338.578100 -0.806531 -12.370306 2.165040 -0.029677 -0.038498 -2.369962 0.022193 -0.244922 -0.131814 6.021271 -7.812001 7.308521 0.000000 0.000000 0.000000 0.914424 -6.365755 6.061513 -7.908588 12.811895 -2.038450 -8.475823 17.114168 5.536518 12.871150 -14.021608 -2.858547 0.000000 0.000000 0.000000 0.000000 0.000000 0.000000 -6.093873 20.750824 2.102432 10.666457 -38.540681 5.030271 81.692746 42.785498 -25.938405 -102.440224 -37.636191 -56.549790 0.000000 0.000000 0.000000 0.000000 0.000000 0.000000 7.282809 27.464674 -9.237582 -2.948822 -3.757999 2.692168 -6.634941 -24.734954 13.685863 0.000000 0.000000 0.000000 4.815635 0.160639 -1.483139 -8.191842 1.082841 0.038975 10.311840 -14.713898 -9.172323 0.000000 0.000000 0.000000
46.989562 68.119086 335.481764 -0.144634 -13.305940 2.844723 -0.045993 -0.228143 -2.966592 0.009895 -0.155719 -0.112077 5.738001 -6.884941 7.319092 0.000000 0.000000 0.000000 1.039000 -6.568283 6.383222 -9.434722 13.177744 -1.771739 -7.533001 18.735590 5.949020 8.573485 -13.304365 -3.176355 0.000000 0.000000 0.000000 0.000000 0.000000 0.000000 -6.783326 21.775123 2.277425 10.552515 -38.478492 5.011539 84.737115 41.997188 -27.474664 -105.185276 -32.425000 -50.006822 0.000000 0.000000 0.000000 0.000000 0.000000 0.000000 7.981877 30.633106 -11.206758 -2.261214 -6.684695 3.773076 -7.921611 -26.051397 12.756771 0.000000 0.000000 0.000000 4.893178 0.191118 -1.988963 -8.221754 -0.260991 0.410660 10.661900 -0.759546 -10.200091 0.000000 0.000000 0.000000
46.201543 67.449815 332.523082 0.638701 -14.303238 4.177308 -0.045639 -0.157856 -4.183724 -0.026894 -0.252740 -0.087359 4.285365 -5.219722 6.996416 0.000000 0.000000 0.000000 1.056888 -6.488724 6.616238 -10.869520 13.420060 -1.448444 -6.480430 20.548544 6.471672 7.779080 -11.770078 -3.143052 0.000000 0.000000 0.000000 0.000000 0.000000 0.000000 -7.577432 22.785816 2.471126 10.475962 -38.265751 4.961590 87.093402 42.240139 -27.669587 -106.437552 -27.390807 -46.066366 0.000000 0.000000 0.000000 0.000000 0.000000 0.000000 9.026922 33.419210 -13.874109 -1.304176 -10.614429 5.145311 -9.044954 -24.007981 11.993205 0.000000 0.000000 0.000000 4.779605 0.201654 -3.110292 -8.393135 -1.269560 0.727600 12.576927 1.943097 -13.535469 0.000000 0.000000 0.000000
45.319678 66.962969 329.396296 0.987863 -15.359379 4.868319 -0.119783 -0.185867 -4.811243 -0.058105 -0.171553 -0.081715 4.671083 -3.817825 6.815810 0.000000 0.000000 0.000000 1.554108 -6.451710 6.828099 -12.189579 13.793503 -1.136473 -5.735162 23.544313 7.762897 9.007523 -14.696395 -4.053576 0.000000 0.000000 0.000000 0.000000 0.000000 0.000000 -7.876366 23.785424 2.643548 10.438958 -38.075043 4.917725 91.554034 39.425298 -31.071096 -110.675440 -25.252183 -41.601443 0.000000 0.000000 0.000000 0.000000 0.000000 0.000000 10.519386 34.574587 -15.467439 -0.982217 -13.549332 6.072342 -9.761484 -19.416158 11.404495 0.000000 0.000000 0.000000 5.213174 0.504746 -3.719631 -8.705142 -2.717166 1.062416 12.663836 10.701708 -14.035526 0.000000 0.000000 0.000000
44.566247 66.571956 326.818054 0.951981 -16.320413 5.341430 -0.200347 -0.236985 -5.280744 -0.059527 -0.039400 -0.092119 6.592474 -3.418360 6.953565 0.000000 0.000000 0.000000 1.917984 -6.488450 7.080288 -12.594319 13.836615 -1.256705 -5.999589 25.494811 8.741593 10.081182 -16.888862 -4.492715 0.000000 0.000000 0.000000 0.000000 0.000000 0.000000 -7.815694 24.667614 2.775191 10.425172 -38.070624 4.914963 94.886478 36.799644 -33.822084 -114.436373 -24.725877 -39.101756 0.000000 0.000000 0.000000 0.000000 0.000000 0.000000 12.160062 35.408272 -16.798503 -0.799621 -15.429915 6.743073 -10.592976 -16.776998 11.696556 0.000000 0.000000 0.000000 6.240520 0.783514 -4.227255 -9.220510 -3.879386 1.355921 11.599404 18.936447 -12.974965 0.000000 0.000000 0.000000
43.797671 66.306347 324.377063 0.656485 -17.279002 5.650214 -0.300049 -0.305644 -5.631520 -0.051807 0.143287 -0.112708 9.521705 -3.329226 7.152742 0.000000 0.000000 0.000000 2.323485 -6.528420 7.337710 -12.513863 13.778754 -1.610819 -6.845549 27.088627 9.739362 12.313067 -19.781334 -4.723060 0.000000 0.000000 0.000000 0.000000 0.000000 0.000000 -7.489187 25.520536 2.878328 10.426494 -38.086839 4.917072 98.362194 32.695290 -37.308675 -119.307832 -26.592620 -37.746456 0.000000 0.000000 0.000000 0.000000 0.000000 0.000000 13.953638 35.558460 -17.763740 -0.817660 -16.900092 7.224437 -11.459216 -13.903376 12.469270 0.000000 0.000000 0.000000 7.686112 1.121779 -4.681823 -9.900535 -5.046835 1.642781 9.050474 27.296261 -10.037554 0.000000 0.000000 0.000000
